<svg xmlns="http://www.w3.org/2000/svg" xmlns:xlink="http://www.w3.org/1999/xlink" xmlns:lucid="lucid" width="1840" height="440"><g transform="translate(-140 -260)" lucid:page-tab-id="0_0"><path d="M0 0h3677.73v1322.83H0z" fill="#fff"/><path d="M160 286c0-3.3 2.7-6 6-6h448c3.3 0 6 2.7 6 6v388c0 3.3-2.7 6-6 6H166c-3.3 0-6-2.7-6-6z" stroke="#5e5e5e" stroke-width="3" fill="#fff"/><path d="M270 546c0-3.3 2.7-6 6-6h228c3.3 0 6 2.7 6 6v48c0 3.3-2.7 6-6 6H276c-3.3 0-6-2.7-6-6z" fill="none"/><use xlink:href="#a" transform="matrix(1,0,0,1,270,540) translate(20.4320987654321 21.111111111111114)"/><use xlink:href="#b" transform="matrix(1,0,0,1,270,540) translate(64.07407407407408 21.111111111111114)"/><use xlink:href="#c" transform="matrix(1,0,0,1,270,540) translate(118.39506172839506 21.111111111111114)"/><use xlink:href="#d" transform="matrix(1,0,0,1,270,540) translate(182.53086419753086 21.111111111111114)"/><use xlink:href="#e" transform="matrix(1,0,0,1,270,540) translate(23.76543209876543 47.777777777777786)"/><use xlink:href="#f" transform="matrix(1,0,0,1,270,540) translate(65.74074074074073 47.777777777777786)"/><use xlink:href="#g" transform="matrix(1,0,0,1,270,540) translate(121.29629629629629 47.777777777777786)"/><use xlink:href="#h" transform="matrix(1,0,0,1,270,540) translate(145.98765432098764 47.777777777777786)"/><path d="M489 340h-69.96c-.44-3.8-1.98-7.4-4.18-10.6l7.04-2.2c2.2-.6 3.96-1.8 5.5-3.4l3.3-4.2c1.1.2 2.2.4 3.3.4 5.06 0 9.46-3 10.78-7.6 1.1-4.4-1.1-9-5.5-11.2-4.62-2.2-10.12-1.4-13.42 2-3.3 3.4-3.74 8.6-1.1 12.4l-3.3 4.2c-.44.4-1.1.8-1.76 1l-9.9 3c-9.68-8.2-24.64-9.4-35.86-2.8l-17.16-9c.22-.8.22-1.4.22-2 0-5.4-4.84-10-11-10s-11 4.6-11 10c0 5.6 4.84 10 11 10 2.64 0 5.06-.8 7.04-2.4l15.18 8c-3.96 4-6.6 9-7.26 14.4H291c-6.16 0-11 4.6-11 10v126.6c0 5.6 4.84 10 11 10v6.8c0 3.6 3.3 6.6 7.26 6.6h29.48c3.96 0 7.26-3 7.26-6.6v-6.8h110v6.8c0 3.6 3.3 6.6 7.26 6.6h29.48c3.96 0 7.26-3 7.26-6.6v-6.8c6.16 0 11-4.4 11-10V350c0-5.4-4.84-10-11-10zm-55-33.2c1.98 0 3.74 1.4 3.74 3.2 0 1.8-1.76 3.4-3.74 3.4-1.98 0-3.74-1.6-3.74-3.4 0-1.8 1.76-3.2 3.74-3.2zm-88 6.6c-1.98 0-3.74-1.6-3.74-3.4 0-1.8 1.76-3.2 3.74-3.2 1.98 0 3.74 1.4 3.74 3.2 0 1-.44 1.8-1.1 2.4-.66.6-1.76 1-2.64 1zm44 10c10.78 0 19.8 7 21.56 16.6h-43.34c1.98-9.6 11-16.6 21.78-16.6zm-62.26 170h-29.48v-6.8h29.48zm154 0h-29.48v-6.8h29.48zm11-16.8c0 2-1.76 3.4-3.74 3.4H291c-1.98 0-3.74-1.4-3.74-3.4V350c0-1.8 1.76-3.4 3.74-3.4h198c1.98 0 3.74 1.6 3.74 3.4z" stroke="#000" stroke-opacity="0" stroke-width="8.33"/><path d="M419.26 353.4H302c-3.96 0-7.26 3-7.26 6.6v106.6c0 3.8 3.3 6.8 7.26 6.8h117.26c4.18 0 7.48-3 7.48-6.8V360c0-3.6-3.3-6.6-7.48-6.6zm0 113.2H302V360h117.26zM459.74 380c7.92 0 14.52-6 14.52-13.4 0-7.2-6.6-13.2-14.52-13.2-8.14 0-14.74 6-14.74 13.2 0 7.4 6.6 13.4 14.74 13.4zm0-20c3.96 0 7.26 3 7.26 6.6 0 3.8-3.3 6.8-7.26 6.8-4.18 0-7.48-3-7.48-6.8 0-3.6 3.3-6.6 7.48-6.6zM459.74 413.4c7.92 0 14.52-6 14.52-13.4s-6.6-13.4-14.52-13.4c-8.14 0-14.74 6-14.74 13.4s6.6 13.4 14.74 13.4zm0-20c3.96 0 7.26 3 7.26 6.6 0 3.8-3.3 6.6-7.26 6.6-4.18 0-7.48-2.8-7.48-6.6 0-3.6 3.3-6.6 7.48-6.6zM474.26 420H445c-3.96 0-7.26 3-7.26 6.6v40c0 3.8 3.3 6.8 7.26 6.8h29.26c4.18 0 7.48-3 7.48-6.8v-40c0-3.6-3.3-6.6-7.48-6.6zm0 6.6v10H445v-10zm0 16.8v10H445v-10zM445 466.6V460h29.26v6.6z" stroke="#000" stroke-opacity="0" stroke-width="8.33"/><path d="M315.86 443.2c.22.2.66.2.88.2 1.76 0 3.08-1.2 3.52-2.8l3.3-15 29.04-13.2-2.86 19.6c0 1.2.22 2.6.88 3.8l6.82 12.4c.88 1.6 3.08 2.2 4.84 1.4 1.76-.8 2.64-2.8 1.76-4.4L357 432.8l3.08-21 15.84 7.2 2.86 7.4c.44 1.8 1.76 3 3.52 3.8l13.42 6.2c1.1.4 2.42.4 3.52-.2 1.1-.8 1.76-1.8 1.76-3s-.88-2.4-1.98-2.8l-13.42-6-2.64-7.4c-.66-1.8-1.98-3.2-3.74-4l-14.74-6.6L384.5 395l4.4 10c1.54 3.2 5.5 5 9.24 3.8l7.7-2.2c1.32-.4 2.2-1.4 2.42-2.6.22-1.2-.22-2.4-1.1-3.2-1.1-.8-2.42-1-3.74-.6l-7.7 2.4-4.4-10.2c-.66-1.8-2.42-3.2-4.4-3.8-2.2-.6-4.4-.4-6.16.8l-20.02 11.2v-15.2l12.54-5.8c1.76-.8 2.64-2.8 1.76-4.4-1.1-1.6-3.3-2.2-5.06-1.4l-12.54 5.6c-2.64 1.2-4.18 3.4-4.18 6V400l-23.32-16c-1.76-1-3.96-.8-5.28.6-1.1 1.6-.88 3.6.88 4.8l24.42 16.8-29.7 13.4c-1.98 1-3.52 2.6-3.96 4.8l-3.3 15c-.22.8 0 1.8.66 2.4.44.8 1.32 1.4 2.2 1.4z" stroke="#000" stroke-opacity="0" stroke-width="8.33"/><path d="M622.5 480H800" stroke="#5e5e5e" stroke-width="2" fill="none"/><path d="M622.53 481h-1.03v-2h1.03z" fill="#5e5e5e"/><path d="M815.26 480L801 484.64v-9.28z" stroke="#5e5e5e" stroke-width="2" fill="#5e5e5e"/><path d="M820 286c0-3.3 2.7-6 6-6h508c3.3 0 6 2.7 6 6v388c0 3.3-2.7 6-6 6H826c-3.3 0-6-2.7-6-6z" stroke="#5e5e5e" stroke-width="3" fill="#fff"/><use xlink:href="#i" transform="matrix(1,0,0,1,825,285) translate(255 78.71527777777777)"/><use xlink:href="#i" transform="matrix(1,0,0,1,825,285) translate(255 105.38194444444446)"/><use xlink:href="#i" transform="matrix(1,0,0,1,825,285) translate(255 132.04861111111111)"/><use xlink:href="#i" transform="matrix(1,0,0,1,825,285) translate(255 158.71527777777777)"/><use xlink:href="#i" transform="matrix(1,0,0,1,825,285) translate(255 185.38194444444443)"/><use xlink:href="#i" transform="matrix(1,0,0,1,825,285) translate(255 212.0486111111111)"/><use xlink:href="#i" transform="matrix(1,0,0,1,825,285) translate(255 238.71527777777774)"/><use xlink:href="#a" transform="matrix(1,0,0,1,825,285) translate(47.62345679012344 265.3819444444444)"/><use xlink:href="#j" transform="matrix(1,0,0,1,825,285) translate(91.26543209876542 265.3819444444444)"/><use xlink:href="#k" transform="matrix(1,0,0,1,825,285) translate(146.69753086419752 265.3819444444444)"/><use xlink:href="#g" transform="matrix(1,0,0,1,825,285) translate(163.91975308641975 265.3819444444444)"/><use xlink:href="#l" transform="matrix(1,0,0,1,825,285) translate(188.61111111111111 265.3819444444444)"/><use xlink:href="#m" transform="matrix(1,0,0,1,825,285) translate(231.820987654321 265.3819444444444)"/><use xlink:href="#n" transform="matrix(1,0,0,1,825,285) translate(256.51234567901236 265.3819444444444)"/><use xlink:href="#o" transform="matrix(1,0,0,1,825,285) translate(294.72222222222223 265.3819444444444)"/><use xlink:href="#p" transform="matrix(1,0,0,1,825,285) translate(388.3641975308642 265.3819444444444)"/><use xlink:href="#q" transform="matrix(1,0,0,1,825,285) translate(442.6851851851852 265.3819444444444)"/><use xlink:href="#r" transform="matrix(1,0,0,1,825,285) translate(42.9320987654321 292.0486111111111)"/><use xlink:href="#s" transform="matrix(1,0,0,1,825,285) translate(155.0925925925926 292.0486111111111)"/><use xlink:href="#t" transform="matrix(1,0,0,1,825,285) translate(216.75925925925927 292.0486111111111)"/><use xlink:href="#u" transform="matrix(1,0,0,1,825,285) translate(259.96913580246917 292.0486111111111)"/><use xlink:href="#v" transform="matrix(1,0,0,1,825,285) translate(340.0308641975309 292.0486111111111)"/><use xlink:href="#e" transform="matrix(1,0,0,1,825,285) translate(393.0555555555556 292.0486111111111)"/><use xlink:href="#w" transform="matrix(1,0,0,1,825,285) translate(435.0308641975309 292.0486111111111)"/><use xlink:href="#x" transform="matrix(1,0,0,1,825,285) translate(211.26543209876542 318.71527777777777)"/><path d="M1500 286c0-3.3 2.7-6 6-6h448c3.3 0 6 2.7 6 6v388c0 3.3-2.7 6-6 6h-448c-3.3 0-6-2.7-6-6z" stroke="#5e5e5e" stroke-width="3" fill="#fff"/><path d="M1342.5 480H1480" stroke="#5e5e5e" stroke-width="2" fill="none"/><path d="M1342.53 481h-1.03v-2h1.03z" fill="#5e5e5e"/><path d="M1495.26 480l-14.26 4.64v-9.28z" stroke="#5e5e5e" stroke-width="2" fill="#5e5e5e"/><path d="M1124.18 354.56c-.9-.96-2.16-1.44-3.6-.8l-5.04 1.92-15.48-33.92c-.54-1.12-1.44-1.76-2.7-1.76h-50.22c-.9 0-1.8.32-2.34 1.12l-28.44 33.76c-.54.64-.72 1.6-.54 2.4.18.64.54 1.44 1.08 2.08l28.44 20.8c1.44.96 3.42.8 4.32-.48l18.54-24.96 9 15.68-5.76 2.88c-1.08.64-1.62 1.76-1.44 2.88.18 1.28.9 2.4 2.34 2.56l31.68 7.68h.72c1.08 0 1.98-.64 2.52-1.44l17.1-27.04c.72-1.12.54-2.4-.18-3.36zm-77.58 19.04l-23.4-17.28 25.56-30.4h3.96l12.6 23.2-18.72 24.48zm56.52 6.56l-21.6-5.12 1.26-.48c.72-.48 1.26-.96 1.44-1.76.18-.8.18-1.6-.18-2.4l-12.78-22.56-11.88-22.08h36l15.84 34.88c.54 1.12 1.8 1.92 3.06 1.76l-11.16 17.76zM1057.22 432l-31.32-1.28 8.1-16.16 5.4 3.04c1.26.64 2.52.64 3.42-.32 1.08-.8 1.44-2.08.9-3.2l-11.52-30.4c-.36-1.12-1.44-1.92-2.88-1.92l-32.22 1.12c-1.44 0-2.34.96-2.7 2.08-.36 1.28.18 2.56 1.08 3.36l4.5 3.04-19.62 31.84c-.54.96-.54 2.24 0 3.2l21.78 31.68 8.28 12.48c.54.8 1.62 1.44 2.52 1.44h44.1c1.8 0 3.06-1.44 3.06-3.2v-33.76c0-1.44-1.26-2.88-2.88-3.04zm-50.4 22.24l-20.16-29.44 20.34-32.64c.72-1.12.54-2.56-.54-3.52l21.24-.96 7.74 20.8-1.26-.64c-.72-.32-1.44-.48-2.34-.16-.72.16-1.26.8-1.62 1.6l-11.7 22.88-11.7 22.08zm47.16 11.68h-39.42l-3.96-5.92 12.42-23.36 30.96 1.28v28zM1159.64 422.08l-19.26-39.52c-.36-.8-.9-1.44-1.8-1.6-.72-.16-1.44-.16-2.34.48l-30.96 16.96c-1.26.8-1.8 2.72-1.08 4.16l15.12 27.04-18.18 1.44-.18-6.08c0-1.44-1.08-2.4-2.16-2.72-1.08-.32-2.52 0-3.24.96l-20.16 25.6c-.72.96-.72 2.4-.18 3.36l18 26.56c.54.64 1.44 1.28 2.52 1.28.18 0 .54 0 .72-.16 1.26-.48 2.16-1.6 2.16-2.72l.18-5.44h37.44c1.26 0 2.34-.64 2.7-1.6l20.7-45.6c.54-.64.54-1.6 0-2.4zm-24.84 43.84h-38.52c-1.44 0-2.52.96-2.88 2.24l-11.88-17.44 13.86-17.6v1.44c0 .8.36 1.44.9 2.08.54.64 1.44.8 2.34.8l25.92-2.4 25.2-1.6-14.94 32.48zm17.28-38.88l-26.46 1.92-14.76-26.88 25.38-14.24 17.64 35.52-1.8 3.68z" stroke="#000" stroke-opacity="0" stroke-width=".4"/><path d="M1783.12 347.18c-3.42-2.28-7.2-4.38-10.98-5.95l-4.5 10.14c3.24 1.4 6.12 2.98 8.82 4.9l6.66-9.1zM1800.04 365.38c-2.16-3.5-4.5-6.83-7.38-9.98l-8.64 7.53c2.34 2.44 4.32 5.07 5.94 8.05l10.08-5.6z" stroke="#000" stroke-opacity="0" stroke-width=".3"/><path d="M1793.92 379.9c7.02 23.63-6.84 48.3-30.96 55.13-24.3 7-49.68-6.65-56.7-30.1-7.2-23.63 6.84-48.3 30.96-55.13 6.66-1.93 13.86-2.28 20.7-1.05l1.98-11.02c-3.24-.53-6.66-.88-9.9-.88-31.5 0-57.06 25.02-57.06 55.65s25.74 55.48 57.24 55.48c31.5 0 57.06-24.86 57.06-55.66 0-5.25-.9-10.5-2.34-15.4l-10.98 2.98z" stroke="#000" stroke-opacity="0" stroke-width=".3"/><path d="M1840 392.5l-14.58-19.6 2.52-24.15-22.86-9.8-10.08-22.22-24.84 2.44L1750 305l-20.16 14.18-24.84-2.45-10.08 22.22-22.86 9.8 2.52 24.15-14.58 19.6 14.58 19.6-2.52 24.15 22.86 9.8 10.08 22.22 24.84-2.44L1750 480l20.16-14.17 24.84 2.44 10.08-22.22 22.86-9.8-2.52-24.15 14.58-19.6zm-43.56 45.15l-8.46 18.73-20.88-2.1-17.1 12.07-17.1-12.08-20.88 2.1-8.46-18.72-19.26-8.4 2.16-20.13-12.42-16.62 12.42-16.63-2.16-20.3 19.26-8.22 8.46-18.73 21.06 2.1 16.92-12.07 17.1 12.08 20.88-2.1 8.46 18.72 19.26 8.4-2.16 20.13 12.42 16.62-12.42 16.63 2.16 20.3-19.26 8.22z" stroke="#000" stroke-opacity="0" stroke-width=".3"/><path d="M1725.52 388.65l-8.1 7.7 21.06 20.65 38.52-37.27-8.1-7.88-30.42 29.4-12.96-12.6z" stroke="#000" stroke-opacity="0" stroke-width=".3"/><path d="M1530 500h400v160h-400z" fill="#fff" fill-opacity="0"/><g><use xlink:href="#a" transform="matrix(1,0,0,1,1535,505) translate(0 17.77777777777778)"/><use xlink:href="#y" transform="matrix(1,0,0,1,1535,505) translate(43.641975308641975 17.77777777777778)"/><use xlink:href="#z" transform="matrix(1,0,0,1,1535,505) translate(80.67901234567901 17.77777777777778)"/><use xlink:href="#t" transform="matrix(1,0,0,1,1535,505) translate(152.22222222222223 17.77777777777778)"/><use xlink:href="#A" transform="matrix(1,0,0,1,1535,505) translate(195.4320987654321 17.77777777777778)"/><use xlink:href="#B" transform="matrix(1,0,0,1,1535,505) translate(237.40740740740742 17.77777777777778)"/><use xlink:href="#C" transform="matrix(1,0,0,1,1535,505) translate(279.38271604938274 17.77777777777778)"/><use xlink:href="#D" transform="matrix(1,0,0,1,1535,505) translate(352.22222222222223 17.77777777777778)"/><use xlink:href="#E" transform="matrix(1,0,0,1,1535,505) translate(0 44.44444444444444)"/><use xlink:href="#e" transform="matrix(1,0,0,1,1535,505) translate(96.17283950617285 44.44444444444444)"/><use xlink:href="#F" transform="matrix(1,0,0,1,1535,505) translate(138.14814814814815 44.44444444444444)"/></g><defs><path fill="#333" d="M137-103V0h-34v-103L8-248h37l75 118 75-118h37" id="G"/><path fill="#333" d="M100-194c62-1 85 37 85 99 1 63-27 99-86 99S16-35 15-95c0-66 28-99 85-99zM99-20c44 1 53-31 53-75 0-43-8-75-51-75s-53 32-53 75 10 74 51 75" id="H"/><path fill="#333" d="M84 4C-5 8 30-112 23-190h32v120c0 31 7 50 39 49 72-2 45-101 50-169h31l1 190h-30c-1-10 1-25-2-33-11 22-28 36-60 37" id="I"/><g id="a"><use transform="matrix(0.06172839506172839,0,0,0.06172839506172839,0,0)" xlink:href="#G"/><use transform="matrix(0.06172839506172839,0,0,0.06172839506172839,12.777777777777777,0)" xlink:href="#H"/><use transform="matrix(0.06172839506172839,0,0,0.06172839506172839,25.123456790123456,0)" xlink:href="#I"/></g><path fill="#333" d="M106-169C34-169 62-67 57 0H25v-261h32l-1 103c12-21 28-36 61-36 89 0 53 116 60 194h-32v-121c2-32-8-49-39-48" id="J"/><path fill="#333" d="M141-36C126-15 110 5 73 4 37 3 15-17 15-53c-1-64 63-63 125-63 3-35-9-54-41-54-24 1-41 7-42 31l-33-3c5-37 33-52 76-52 45 0 72 20 72 64v82c-1 20 7 32 28 27v20c-31 9-61-2-59-35zM48-53c0 20 12 33 32 33 41-3 63-29 60-74-43 2-92-5-92 41" id="K"/><path fill="#333" d="M108 0H70L1-190h34L89-25l56-165h34" id="L"/><path fill="#333" d="M100-194c63 0 86 42 84 106H49c0 40 14 67 53 68 26 1 43-12 49-29l28 8c-11 28-37 45-77 45C44 4 14-33 15-96c1-61 26-98 85-98zm52 81c6-60-76-77-97-28-3 7-6 17-6 28h103" id="M"/><g id="b"><use transform="matrix(0.06172839506172839,0,0,0.06172839506172839,0,0)" xlink:href="#J"/><use transform="matrix(0.06172839506172839,0,0,0.06172839506172839,12.345679012345679,0)" xlink:href="#K"/><use transform="matrix(0.06172839506172839,0,0,0.06172839506172839,24.691358024691358,0)" xlink:href="#L"/><use transform="matrix(0.06172839506172839,0,0,0.06172839506172839,35.80246913580247,0)" xlink:href="#M"/></g><path fill="#333" d="M206 0h-36l-40-164L89 0H53L-1-190h32L70-26l43-164h34l41 164 42-164h31" id="N"/><path fill="#333" d="M135-143c-3-34-86-38-87 0 15 53 115 12 119 90S17 21 10-45l28-5c4 36 97 45 98 0-10-56-113-15-118-90-4-57 82-63 122-42 12 7 21 19 24 35" id="O"/><path fill="#333" d="M59-47c-2 24 18 29 38 22v24C64 9 27 4 27-40v-127H5v-23h24l9-43h21v43h35v23H59v120" id="P"/><g id="c"><use transform="matrix(0.06172839506172839,0,0,0.06172839506172839,0,0)" xlink:href="#N"/><use transform="matrix(0.06172839506172839,0,0,0.06172839506172839,15.987654320987653,0)" xlink:href="#K"/><use transform="matrix(0.06172839506172839,0,0,0.06172839506172839,28.333333333333332,0)" xlink:href="#O"/><use transform="matrix(0.06172839506172839,0,0,0.06172839506172839,39.44444444444444,0)" xlink:href="#P"/><use transform="matrix(0.06172839506172839,0,0,0.06172839506172839,45.617283950617285,0)" xlink:href="#M"/></g><g id="d"><use transform="matrix(0.06172839506172839,0,0,0.06172839506172839,0,0)" xlink:href="#P"/><use transform="matrix(0.06172839506172839,0,0,0.06172839506172839,6.172839506172839,0)" xlink:href="#J"/><use transform="matrix(0.06172839506172839,0,0,0.06172839506172839,18.51851851851852,0)" xlink:href="#K"/><use transform="matrix(0.06172839506172839,0,0,0.06172839506172839,30.864197530864196,0)" xlink:href="#P"/></g><path fill="#333" d="M179-190L93 31C79 59 56 82 12 73V49c39 6 53-20 64-50L1-190h34L92-34l54-156h33" id="Q"/><g id="e"><use transform="matrix(0.06172839506172839,0,0,0.06172839506172839,0,0)" xlink:href="#Q"/><use transform="matrix(0.06172839506172839,0,0,0.06172839506172839,11.11111111111111,0)" xlink:href="#H"/><use transform="matrix(0.06172839506172839,0,0,0.06172839506172839,23.45679012345679,0)" xlink:href="#I"/></g><path fill="#333" d="M117-194c89-4 53 116 60 194h-32v-121c0-31-8-49-39-48C34-167 62-67 57 0H25l-1-190h30c1 10-1 24 2 32 11-22 29-35 61-36" id="R"/><path fill="#333" d="M85-194c31 0 48 13 60 33l-1-100h32l1 261h-30c-2-10 0-23-3-31C134-8 116 4 85 4 32 4 16-35 15-94c0-66 23-100 70-100zm9 24c-40 0-46 34-46 75 0 40 6 74 45 74 42 0 51-32 51-76 0-42-9-74-50-73" id="S"/><g id="f"><use transform="matrix(0.06172839506172839,0,0,0.06172839506172839,0,0)" xlink:href="#R"/><use transform="matrix(0.06172839506172839,0,0,0.06172839506172839,12.345679012345679,0)" xlink:href="#M"/><use transform="matrix(0.06172839506172839,0,0,0.06172839506172839,24.691358024691358,0)" xlink:href="#M"/><use transform="matrix(0.06172839506172839,0,0,0.06172839506172839,37.03703703703704,0)" xlink:href="#S"/></g><g id="g"><use transform="matrix(0.06172839506172839,0,0,0.06172839506172839,0,0)" xlink:href="#P"/><use transform="matrix(0.06172839506172839,0,0,0.06172839506172839,6.172839506172839,0)" xlink:href="#H"/></g><path fill="#333" d="M114-163C36-179 61-72 57 0H25l-1-190h30c1 12-1 29 2 39 6-27 23-49 58-41v29" id="T"/><path fill="#333" d="M96-169c-40 0-48 33-48 73s9 75 48 75c24 0 41-14 43-38l32 2c-6 37-31 61-74 61-59 0-76-41-82-99-10-93 101-131 147-64 4 7 5 14 7 22l-32 3c-4-21-16-35-41-35" id="U"/><path fill="#333" d="M24 0v-261h32V0H24" id="V"/><g id="h"><use transform="matrix(0.06172839506172839,0,0,0.06172839506172839,0,0)" xlink:href="#T"/><use transform="matrix(0.06172839506172839,0,0,0.06172839506172839,7.345679012345679,0)" xlink:href="#M"/><use transform="matrix(0.06172839506172839,0,0,0.06172839506172839,19.691358024691358,0)" xlink:href="#U"/><use transform="matrix(0.06172839506172839,0,0,0.06172839506172839,30.80246913580247,0)" xlink:href="#Q"/><use transform="matrix(0.06172839506172839,0,0,0.06172839506172839,41.91358024691358,0)" xlink:href="#U"/><use transform="matrix(0.06172839506172839,0,0,0.06172839506172839,53.0246913580247,0)" xlink:href="#V"/><use transform="matrix(0.06172839506172839,0,0,0.06172839506172839,57.90123456790124,0)" xlink:href="#M"/></g><path fill="#333" d="M115-194c53 0 69 39 70 98 0 66-23 100-70 100C84 3 66-7 56-30L54 0H23l1-261h32v101c10-23 28-34 59-34zm-8 174c40 0 45-34 45-75 0-40-5-75-45-74-42 0-51 32-51 76 0 43 10 73 51 73" id="W"/><path fill="#333" d="M24-231v-30h32v30H24zM24 0v-190h32V0H24" id="X"/><path fill="#333" d="M177-190C167-65 218 103 67 71c-23-6-38-20-44-43l32-5c15 47 100 32 89-28v-30C133-14 115 1 83 1 29 1 15-40 15-95c0-56 16-97 71-98 29-1 48 16 59 35 1-10 0-23 2-32h30zM94-22c36 0 50-32 50-73 0-42-14-75-50-75-39 0-46 34-46 75s6 73 46 73" id="Y"/><g id="j"><use transform="matrix(0.06172839506172839,0,0,0.06172839506172839,0,0)" xlink:href="#W"/><use transform="matrix(0.06172839506172839,0,0,0.06172839506172839,12.345679012345679,0)" xlink:href="#T"/><use transform="matrix(0.06172839506172839,0,0,0.06172839506172839,19.691358024691358,0)" xlink:href="#X"/><use transform="matrix(0.06172839506172839,0,0,0.06172839506172839,24.5679012345679,0)" xlink:href="#R"/><use transform="matrix(0.06172839506172839,0,0,0.06172839506172839,36.913580246913575,0)" xlink:href="#Y"/></g><g id="k"><use transform="matrix(0.06172839506172839,0,0,0.06172839506172839,0,0)" xlink:href="#X"/><use transform="matrix(0.06172839506172839,0,0,0.06172839506172839,4.876543209876543,0)" xlink:href="#P"/></g><g id="l"><use transform="matrix(0.06172839506172839,0,0,0.06172839506172839,0,0)" xlink:href="#H"/><use transform="matrix(0.06172839506172839,0,0,0.06172839506172839,12.345679012345679,0)" xlink:href="#R"/><use transform="matrix(0.06172839506172839,0,0,0.06172839506172839,24.691358024691358,0)" xlink:href="#M"/></g><path fill="#333" d="M101-234c-31-9-42 10-38 44h38v23H63V0H32v-167H5v-23h27c-7-52 17-82 69-68v24" id="Z"/><g id="m"><use transform="matrix(0.06172839506172839,0,0,0.06172839506172839,0,0)" xlink:href="#H"/><use transform="matrix(0.06172839506172839,0,0,0.06172839506172839,12.345679012345679,0)" xlink:href="#Z"/></g><g id="n"><use transform="matrix(0.06172839506172839,0,0,0.06172839506172839,0,0)" xlink:href="#H"/><use transform="matrix(0.06172839506172839,0,0,0.06172839506172839,12.345679012345679,0)" xlink:href="#I"/><use transform="matrix(0.06172839506172839,0,0,0.06172839506172839,24.691358024691358,0)" xlink:href="#T"/></g><g id="o"><use transform="matrix(0.06172839506172839,0,0,0.06172839506172839,0,0)" xlink:href="#T"/><use transform="matrix(0.06172839506172839,0,0,0.06172839506172839,7.345679012345679,0)" xlink:href="#M"/><use transform="matrix(0.06172839506172839,0,0,0.06172839506172839,19.691358024691358,0)" xlink:href="#U"/><use transform="matrix(0.06172839506172839,0,0,0.06172839506172839,30.80246913580247,0)" xlink:href="#Q"/><use transform="matrix(0.06172839506172839,0,0,0.06172839506172839,41.91358024691358,0)" xlink:href="#U"/><use transform="matrix(0.06172839506172839,0,0,0.06172839506172839,53.0246913580247,0)" xlink:href="#V"/><use transform="matrix(0.06172839506172839,0,0,0.06172839506172839,57.90123456790124,0)" xlink:href="#X"/><use transform="matrix(0.06172839506172839,0,0,0.06172839506172839,62.777777777777786,0)" xlink:href="#R"/><use transform="matrix(0.06172839506172839,0,0,0.06172839506172839,75.12345679012347,0)" xlink:href="#Y"/></g><g id="p"><use transform="matrix(0.06172839506172839,0,0,0.06172839506172839,0,0)" xlink:href="#J"/><use transform="matrix(0.06172839506172839,0,0,0.06172839506172839,12.345679012345679,0)" xlink:href="#I"/><use transform="matrix(0.06172839506172839,0,0,0.06172839506172839,24.691358024691358,0)" xlink:href="#W"/><use transform="matrix(0.06172839506172839,0,0,0.06172839506172839,37.03703703703704,0)" xlink:href="#O"/></g><g id="q"><use transform="matrix(0.06172839506172839,0,0,0.06172839506172839,0,0)" xlink:href="#H"/><use transform="matrix(0.06172839506172839,0,0,0.06172839506172839,12.345679012345679,0)" xlink:href="#T"/></g><g id="r"><use transform="matrix(0.06172839506172839,0,0,0.06172839506172839,0,0)" xlink:href="#M"/><use transform="matrix(0.06172839506172839,0,0,0.06172839506172839,12.345679012345679,0)" xlink:href="#V"/><use transform="matrix(0.06172839506172839,0,0,0.06172839506172839,17.22222222222222,0)" xlink:href="#M"/><use transform="matrix(0.06172839506172839,0,0,0.06172839506172839,29.5679012345679,0)" xlink:href="#U"/><use transform="matrix(0.06172839506172839,0,0,0.06172839506172839,40.67901234567901,0)" xlink:href="#P"/><use transform="matrix(0.06172839506172839,0,0,0.06172839506172839,46.851851851851855,0)" xlink:href="#T"/><use transform="matrix(0.06172839506172839,0,0,0.06172839506172839,54.19753086419753,0)" xlink:href="#H"/><use transform="matrix(0.06172839506172839,0,0,0.06172839506172839,66.54320987654322,0)" xlink:href="#R"/><use transform="matrix(0.06172839506172839,0,0,0.06172839506172839,78.8888888888889,0)" xlink:href="#X"/><use transform="matrix(0.06172839506172839,0,0,0.06172839506172839,83.76543209876544,0)" xlink:href="#U"/><use transform="matrix(0.06172839506172839,0,0,0.06172839506172839,94.87654320987656,0)" xlink:href="#O"/></g><path fill="#333" d="M68-38c1 34 0 65-14 84H32c9-13 17-26 17-46H33v-38h35" id="aa"/><g id="s"><use transform="matrix(0.06172839506172839,0,0,0.06172839506172839,0,0)" xlink:href="#O"/><use transform="matrix(0.06172839506172839,0,0,0.06172839506172839,11.11111111111111,0)" xlink:href="#P"/><use transform="matrix(0.06172839506172839,0,0,0.06172839506172839,17.28395061728395,0)" xlink:href="#H"/><use transform="matrix(0.06172839506172839,0,0,0.06172839506172839,29.629629629629626,0)" xlink:href="#T"/><use transform="matrix(0.06172839506172839,0,0,0.06172839506172839,36.9753086419753,0)" xlink:href="#M"/><use transform="matrix(0.06172839506172839,0,0,0.06172839506172839,49.32098765432098,0)" xlink:href="#aa"/></g><g id="t"><use transform="matrix(0.06172839506172839,0,0,0.06172839506172839,0,0)" xlink:href="#K"/><use transform="matrix(0.06172839506172839,0,0,0.06172839506172839,12.345679012345679,0)" xlink:href="#R"/><use transform="matrix(0.06172839506172839,0,0,0.06172839506172839,24.691358024691358,0)" xlink:href="#S"/></g><g id="u"><use transform="matrix(0.06172839506172839,0,0,0.06172839506172839,0,0)" xlink:href="#T"/><use transform="matrix(0.06172839506172839,0,0,0.06172839506172839,7.345679012345679,0)" xlink:href="#M"/><use transform="matrix(0.06172839506172839,0,0,0.06172839506172839,19.691358024691358,0)" xlink:href="#Y"/><use transform="matrix(0.06172839506172839,0,0,0.06172839506172839,32.03703703703704,0)" xlink:href="#X"/><use transform="matrix(0.06172839506172839,0,0,0.06172839506172839,36.91358024691358,0)" xlink:href="#O"/><use transform="matrix(0.06172839506172839,0,0,0.06172839506172839,48.0246913580247,0)" xlink:href="#P"/><use transform="matrix(0.06172839506172839,0,0,0.06172839506172839,54.19753086419754,0)" xlink:href="#M"/><use transform="matrix(0.06172839506172839,0,0,0.06172839506172839,66.54320987654322,0)" xlink:href="#T"/></g><g id="v"><use transform="matrix(0.06172839506172839,0,0,0.06172839506172839,0,0)" xlink:href="#N"/><use transform="matrix(0.06172839506172839,0,0,0.06172839506172839,15.987654320987653,0)" xlink:href="#J"/><use transform="matrix(0.06172839506172839,0,0,0.06172839506172839,28.333333333333332,0)" xlink:href="#K"/><use transform="matrix(0.06172839506172839,0,0,0.06172839506172839,40.67901234567901,0)" xlink:href="#P"/></g><g id="w"><use transform="matrix(0.06172839506172839,0,0,0.06172839506172839,0,0)" xlink:href="#K"/><use transform="matrix(0.06172839506172839,0,0,0.06172839506172839,12.345679012345679,0)" xlink:href="#T"/><use transform="matrix(0.06172839506172839,0,0,0.06172839506172839,19.691358024691358,0)" xlink:href="#M"/></g><g id="x"><use transform="matrix(0.06172839506172839,0,0,0.06172839506172839,0,0)" xlink:href="#T"/><use transform="matrix(0.06172839506172839,0,0,0.06172839506172839,7.345679012345679,0)" xlink:href="#M"/><use transform="matrix(0.06172839506172839,0,0,0.06172839506172839,19.691358024691358,0)" xlink:href="#U"/><use transform="matrix(0.06172839506172839,0,0,0.06172839506172839,30.80246913580247,0)" xlink:href="#Q"/><use transform="matrix(0.06172839506172839,0,0,0.06172839506172839,41.91358024691358,0)" xlink:href="#U"/><use transform="matrix(0.06172839506172839,0,0,0.06172839506172839,53.0246913580247,0)" xlink:href="#V"/><use transform="matrix(0.06172839506172839,0,0,0.06172839506172839,57.90123456790124,0)" xlink:href="#X"/><use transform="matrix(0.06172839506172839,0,0,0.06172839506172839,62.777777777777786,0)" xlink:href="#R"/><use transform="matrix(0.06172839506172839,0,0,0.06172839506172839,75.12345679012347,0)" xlink:href="#Y"/></g><g id="y"><use transform="matrix(0.06172839506172839,0,0,0.06172839506172839,0,0)" xlink:href="#Y"/><use transform="matrix(0.06172839506172839,0,0,0.06172839506172839,12.345679012345679,0)" xlink:href="#M"/><use transform="matrix(0.06172839506172839,0,0,0.06172839506172839,24.691358024691358,0)" xlink:href="#P"/></g><path fill="#333" d="M115-194c55 1 70 41 70 98S169 2 115 4C84 4 66-9 55-30l1 105H24l-1-265h31l2 30c10-21 28-34 59-34zm-8 174c40 0 45-34 45-75s-6-73-45-74c-42 0-51 32-51 76 0 43 10 73 51 73" id="ab"/><g id="z"><use transform="matrix(0.06172839506172839,0,0,0.06172839506172839,0,0)" xlink:href="#ab"/><use transform="matrix(0.06172839506172839,0,0,0.06172839506172839,12.345679012345679,0)" xlink:href="#H"/><use transform="matrix(0.06172839506172839,0,0,0.06172839506172839,24.691358024691358,0)" xlink:href="#X"/><use transform="matrix(0.06172839506172839,0,0,0.06172839506172839,29.5679012345679,0)" xlink:href="#R"/><use transform="matrix(0.06172839506172839,0,0,0.06172839506172839,41.913580246913575,0)" xlink:href="#P"/><use transform="matrix(0.06172839506172839,0,0,0.06172839506172839,48.08641975308642,0)" xlink:href="#O"/><use transform="matrix(0.06172839506172839,0,0,0.06172839506172839,59.19753086419753,0)" xlink:href="#aa"/></g><g id="A"><use transform="matrix(0.06172839506172839,0,0,0.06172839506172839,0,0)" xlink:href="#U"/><use transform="matrix(0.06172839506172839,0,0,0.06172839506172839,11.11111111111111,0)" xlink:href="#K"/><use transform="matrix(0.06172839506172839,0,0,0.06172839506172839,23.45679012345679,0)" xlink:href="#R"/></g><g id="B"><use transform="matrix(0.06172839506172839,0,0,0.06172839506172839,0,0)" xlink:href="#I"/><use transform="matrix(0.06172839506172839,0,0,0.06172839506172839,12.345679012345679,0)" xlink:href="#O"/><use transform="matrix(0.06172839506172839,0,0,0.06172839506172839,23.45679012345679,0)" xlink:href="#M"/></g><g id="C"><use transform="matrix(0.06172839506172839,0,0,0.06172839506172839,0,0)" xlink:href="#P"/><use transform="matrix(0.06172839506172839,0,0,0.06172839506172839,6.172839506172839,0)" xlink:href="#J"/><use transform="matrix(0.06172839506172839,0,0,0.06172839506172839,18.51851851851852,0)" xlink:href="#M"/><use transform="matrix(0.06172839506172839,0,0,0.06172839506172839,30.864197530864196,0)" xlink:href="#M"/><use transform="matrix(0.06172839506172839,0,0,0.06172839506172839,43.20987654320987,0)" xlink:href="#O"/><use transform="matrix(0.06172839506172839,0,0,0.06172839506172839,54.32098765432099,0)" xlink:href="#M"/></g><g id="D"><use transform="matrix(0.06172839506172839,0,0,0.06172839506172839,0,0)" xlink:href="#H"/><use transform="matrix(0.06172839506172839,0,0,0.06172839506172839,12.345679012345679,0)" xlink:href="#R"/></g><g id="E"><use transform="matrix(0.06172839506172839,0,0,0.06172839506172839,0,0)" xlink:href="#N"/><use transform="matrix(0.06172839506172839,0,0,0.06172839506172839,15.987654320987653,0)" xlink:href="#J"/><use transform="matrix(0.06172839506172839,0,0,0.06172839506172839,28.333333333333332,0)" xlink:href="#K"/><use transform="matrix(0.06172839506172839,0,0,0.06172839506172839,40.67901234567901,0)" xlink:href="#P"/><use transform="matrix(0.06172839506172839,0,0,0.06172839506172839,46.851851851851855,0)" xlink:href="#M"/><use transform="matrix(0.06172839506172839,0,0,0.06172839506172839,59.19753086419753,0)" xlink:href="#L"/><use transform="matrix(0.06172839506172839,0,0,0.06172839506172839,70.30864197530865,0)" xlink:href="#M"/><use transform="matrix(0.06172839506172839,0,0,0.06172839506172839,82.65432098765433,0)" xlink:href="#T"/></g><path fill="#333" d="M63-70H37l-4-178h34zM33 0v-35h34V0H33" id="ac"/><g id="F"><use transform="matrix(0.06172839506172839,0,0,0.06172839506172839,0,0)" xlink:href="#N"/><use transform="matrix(0.06172839506172839,0,0,0.06172839506172839,15.987654320987653,0)" xlink:href="#K"/><use transform="matrix(0.06172839506172839,0,0,0.06172839506172839,28.333333333333332,0)" xlink:href="#R"/><use transform="matrix(0.06172839506172839,0,0,0.06172839506172839,40.67901234567901,0)" xlink:href="#P"/><use transform="matrix(0.06172839506172839,0,0,0.06172839506172839,46.851851851851855,0)" xlink:href="#ac"/></g></defs></g></svg>